<svg xmlns="http://www.w3.org/2000/svg" viewBox="0 0 144.74 113.08"><defs><style>.cls-1{fill:#ccc;}.cls-2{fill:#05eabf;}.cls-3{fill:#ffd469;}.cls-4{fill:#ff5691;}</style></defs><title>Recurso 2</title><g id="Capa_2" data-name="Capa 2"><g id="Capa_1-2" data-name="Capa 1"><path class="cls-1" d="M2.83,2.85H141.92V21.5H2.83Z"/><path class="cls-2" d="M48,68.78l0,0a35.23,35.23,0,0,0-11,25.6H16.4a55.78,55.78,0,0,1,17-40.2l.17.17Z"/><path class="cls-3" d="M111.8,54.67l-.18.18L97.23,69.25l0,0A35.34,35.34,0,0,0,48,68.81l0,0L33.59,54.38l-.17-.17a56,56,0,0,1,78.38.46Z"/><path class="cls-4" d="M97.23,69.25l14.39-14.4.18-.18a55.82,55.82,0,0,1,16.55,39.74H107.71a35.23,35.23,0,0,0-10.5-25.14Z"/><path d="M144.74,2.68A2.83,2.83,0,0,0,141.92,0H2.83A2.83,2.83,0,0,0,0,2.68V110.25a2.83,2.83,0,0,0,2.83,2.83H141.92a2.83,2.83,0,0,0,2.82-2.83V2.68ZM5.65,5.62H139.09v13H5.65ZM139.09,107.43H5.65V24.32H139.09Z"/><path d="M48.34,15.17H25.73a2.83,2.83,0,0,1,0-5.66H48.34a2.83,2.83,0,0,1,0,5.66Z"/><path d="M14.42,15.17a2.83,2.83,0,0,1,0-5.66h0a2.83,2.83,0,1,1,0,5.66Z"/><path d="M113.89,52.77l-.1-.11a58.81,58.81,0,0,0-82.34-.49l-.1.11A58.31,58.31,0,0,0,13.57,94.42a2.83,2.83,0,0,0,2.83,2.83H37a2.83,2.83,0,0,0,2.83-2.83,32.51,32.51,0,1,1,65,0,2.83,2.83,0,0,0,2.83,2.83h20.64a2.83,2.83,0,0,0,2.82-2.83A58.39,58.39,0,0,0,113.89,52.77ZM34.31,91.59h-15A52.55,52.55,0,0,1,33.44,58.23L44,68.83A37.74,37.74,0,0,0,34.31,91.59ZM72.37,56.24a38,38,0,0,0-24.24,8.69L37.5,54.3a53.13,53.13,0,0,1,70.24.43L97.12,65.36A37.87,37.87,0,0,0,72.37,56.24Zm38.07,35.35a37.86,37.86,0,0,0-9.3-22.26l10.62-10.61a52.73,52.73,0,0,1,13.69,32.87Z"/><path d="M72.09,97.25a2.83,2.83,0,0,1-2-.83L54.26,80.58a2.83,2.83,0,0,1,4-4L74.09,92.42a2.83,2.83,0,0,1-2,4.83Z"/></g></g></svg>