<svg xmlns="http://www.w3.org/2000/svg" viewBox="0 0 346 270.31"><defs><style>.cls-1{fill:#3c3c3b;}.cls-2{fill:#ffd469;}.cls-3{fill:#ff5691;}.cls-4{fill:#05eabf;}</style></defs><title>Recurso 7</title><g id="Capa_2" data-name="Capa 2"><g id="Capa_1-2" data-name="Capa 1"><path class="cls-1" d="M305.45,263.56H40.55A33.79,33.79,0,0,1,6.76,229.77V198.72a2.7,2.7,0,0,1,2.7-2.7H336.54a2.7,2.7,0,0,1,2.7,2.7v31.05A33.79,33.79,0,0,1,305.45,263.56Z"/><path class="cls-2" d="M139.21,33.84h67.58v54H139.21Z"/><path class="cls-3" d="M44.6,33.84h67.58v54H44.6Z"/><path class="cls-4" d="M233.82,33.84H301.4v54H233.82Z"/><path class="cls-3" d="M139.21,114.89h67.58v54H139.21Z"/><path class="cls-4" d="M44.6,114.89h67.58v54H44.6Z"/><path class="cls-2" d="M233.82,114.89H301.4v54H233.82Z"/><path d="M336.54,189.26h-1.35V27a27.06,27.06,0,0,0-27-27H37.84a27.06,27.06,0,0,0-27,27V189.26H9.46A9.47,9.47,0,0,0,0,198.72v31.07a40.58,40.58,0,0,0,40.55,40.52h264.9A40.58,40.58,0,0,0,346,229.79V198.72A9.47,9.47,0,0,0,336.54,189.26ZM24.33,27A13.52,13.52,0,0,1,37.84,13.51H308.16A13.52,13.52,0,0,1,321.67,27v162.1H24.33ZM332.48,229.79a27,27,0,0,1-27,27H40.55a27,27,0,0,1-27-27v-27h319Z"/><path d="M213.55,236.54H159.48a6.76,6.76,0,0,1,0-13.51h54.07a6.76,6.76,0,0,1,0,13.51Z"/><path d="M132.47,236.54a6.76,6.76,0,0,1,0-13.51h0a6.76,6.76,0,0,1,0,13.51Z"/><path d="M206.79,94.63H139.21a6.76,6.76,0,0,1-6.76-6.75v-54a6.76,6.76,0,0,1,6.76-6.75h67.58a6.76,6.76,0,0,1,6.76,6.75v54A6.76,6.76,0,0,1,206.79,94.63ZM146,81.12H200V40.6H146Z"/><path d="M112.18,94.63H44.6a6.76,6.76,0,0,1-6.76-6.75v-54a6.76,6.76,0,0,1,6.76-6.75h67.58a6.76,6.76,0,0,1,6.76,6.75v54A6.76,6.76,0,0,1,112.18,94.63ZM51.36,81.12h54.06V40.6H51.36Z"/><path d="M301.4,94.63H233.82a6.76,6.76,0,0,1-6.76-6.75v-54a6.76,6.76,0,0,1,6.76-6.75H301.4a6.76,6.76,0,0,1,6.76,6.75v54A6.76,6.76,0,0,1,301.4,94.63ZM240.58,81.12h54.06V40.6H240.58Z"/><path d="M206.79,175.68H139.21a6.76,6.76,0,0,1-6.76-6.75v-54a6.76,6.76,0,0,1,6.76-6.75h67.58a6.76,6.76,0,0,1,6.76,6.75v54A6.76,6.76,0,0,1,206.79,175.68ZM146,162.17H200V121.65H146Z"/><path d="M112.18,175.68H44.6a6.76,6.76,0,0,1-6.76-6.75v-54a6.76,6.76,0,0,1,6.76-6.75h67.58a6.76,6.76,0,0,1,6.76,6.75v54A6.76,6.76,0,0,1,112.18,175.68ZM51.36,162.17h54.06V121.65H51.36Z"/><path d="M301.4,175.68H233.82a6.76,6.76,0,0,1-6.76-6.75v-54a6.76,6.76,0,0,1,6.76-6.75H301.4a6.76,6.76,0,0,1,6.76,6.75v54A6.76,6.76,0,0,1,301.4,175.68Zm-60.82-13.51h54.06V121.65H240.58Z"/></g></g></svg>