<svg xmlns="http://www.w3.org/2000/svg" viewBox="0 0 124.91 145.35"><defs><style>.cls-1{fill:#05eabf;}.cls-2{fill:#ff5691;}.cls-3{fill:#3f6cfe;}</style></defs><title>Recurso 6</title><g id="Capa_2" data-name="Capa 2"><g id="Capa_1-2" data-name="Capa 1"><path class="cls-1" d="M31.21,128.32A14.19,14.19,0,1,0,17,142.51,14.19,14.19,0,0,0,31.21,128.32Z"/><path class="cls-1" d="M76.61,128.32a14.19,14.19,0,1,0-14.19,14.19A14.19,14.19,0,0,0,76.61,128.32Z"/><path class="cls-1" d="M122,128.32a14.19,14.19,0,1,0-14.19,14.19A14.2,14.2,0,0,0,122,128.32Z"/><path class="cls-2" d="M73.84,97.09H51.14a2.84,2.84,0,0,1-2.84-2.84V71.54a2.84,2.84,0,0,1,2.84-2.84h22.7a2.84,2.84,0,0,1,2.84,2.84V94.25A2.84,2.84,0,0,1,73.84,97.09Z"/><path class="cls-2" d="M119.24,97.09H96.54a2.84,2.84,0,0,1-2.84-2.84V71.54a2.84,2.84,0,0,1,2.84-2.84h22.7a2.84,2.84,0,0,1,2.84,2.84V94.25A2.85,2.85,0,0,1,119.24,97.09Z"/><path class="cls-2" d="M28.44,97.09H5.74a2.84,2.84,0,0,1-2.83-2.84V71.54A2.84,2.84,0,0,1,5.74,68.7h22.7a2.84,2.84,0,0,1,2.84,2.84V94.25A2.84,2.84,0,0,1,28.44,97.09Z"/><path class="cls-3" d="M105,34.63H19.86A2.84,2.84,0,0,1,17,31.8V5.68a2.84,2.84,0,0,1,2.84-2.84H105a2.84,2.84,0,0,1,2.84,2.84V31.8A2.84,2.84,0,0,1,105,34.63Z"/><path d="M119.24,99.93a5.68,5.68,0,0,0,5.67-5.68V71.54a5.68,5.68,0,0,0-5.67-5.68h-8.52V51.66a2.83,2.83,0,0,0-2.83-2.83H65.26V37.47H105a5.68,5.68,0,0,0,5.68-5.67V5.68A5.69,5.69,0,0,0,105,0H19.86a5.68,5.68,0,0,0-5.67,5.68V31.8a5.67,5.67,0,0,0,5.67,5.67H59.58V48.83H17.09a2.84,2.84,0,0,0-2.84,2.83v14.2H5.74A5.68,5.68,0,0,0,.07,71.54V94.25a5.68,5.68,0,0,0,5.67,5.68h8.45v11.59a17,17,0,1,0,5.67,0V99.93h8.58a5.69,5.69,0,0,0,5.68-5.68V71.54a5.69,5.69,0,0,0-5.68-5.68H19.93V54.5H59.58V65.86H51.14a5.68,5.68,0,0,0-5.67,5.68V94.25a5.68,5.68,0,0,0,5.67,5.68h8.44v11.59a17,17,0,1,0,5.68,0V99.93h8.58a5.68,5.68,0,0,0,5.67-5.68V71.54a5.68,5.68,0,0,0-5.67-5.68H65.26V54.5h39.79V65.86H96.54a5.69,5.69,0,0,0-5.68,5.68V94.25a5.69,5.69,0,0,0,5.68,5.68H105L105,111.52a17,17,0,1,0,5.68,0l0-11.59ZM28.37,128.32A11.35,11.35,0,1,1,17,117,11.36,11.36,0,0,1,28.37,128.32Zm.07-56.78V94.25H5.74V71.54Zm45.33,56.78A11.35,11.35,0,1,1,62.42,117,11.36,11.36,0,0,1,73.77,128.32Zm.07-56.78V94.25H51.14V71.54Zm-54-39.74V5.68H105v9.64H73.77a2.84,2.84,0,1,0,0,5.67H105V31.8H19.86Zm99.31,96.52A11.35,11.35,0,1,1,107.81,117h0A11.37,11.37,0,0,1,119.17,128.32ZM96.54,94.25V71.54h22.7V94.25H96.54Z"/><path d="M62.43,21a2.84,2.84,0,1,1,0-5.67h0a2.84,2.84,0,0,1,0,5.67Z"/></g></g></svg>