<svg xmlns="http://www.w3.org/2000/svg" viewBox="0 0 131.59 143.35"><defs><style>.cls-1{fill:#fff;}.cls-2{fill:#ff9779;}.cls-3{fill:#05eabf;}</style></defs><title>Recurso 5</title><g id="Capa_2" data-name="Capa 2"><g id="Capa_1-2" data-name="Capa 1"><path class="cls-1" d="M100.93,53.2H14A11.2,11.2,0,0,1,2.8,42V14A11.19,11.19,0,0,1,14,2.8h92.53A11.19,11.19,0,0,1,117.73,14V36.4A16.8,16.8,0,0,1,100.93,53.2Z"/><path class="cls-2" d="M60.28,140.55h0a8.4,8.4,0,0,1-8.4-8.4V95.75H68.67v36.4A8.4,8.4,0,0,1,60.28,140.55Z"/><path class="cls-1" d="M51.86,95.75H68.67V107H51.86Z"/><path class="cls-3" d="M29.65,2.8a4,4,0,0,0-4,4V14c0,3.09,3.14,5.6,7,5.6h5.72v3.08c0,3.09,3.14,5.6,7,5.6s7-2.51,7-5.6V19.6H68.37v9.8c0,3.09,3.14,5.6,7,5.6s7-2.51,7-5.6V19.6h6.36c3.87,0,7-2.51,7-5.6V6.77a4,4,0,0,0-4-4Z"/><path d="M37.86,45.94a2.8,2.8,0,1,1,0-5.59h0a2.8,2.8,0,1,1,0,5.59Z"/><path d="M123.18,25.2h-2.65V14a14,14,0,0,0-14-14H14A14,14,0,0,0,0,14V42A14,14,0,0,0,14,56h86.93a19.63,19.63,0,0,0,19.6-19.6V30.8h2.65A2.8,2.8,0,0,1,126,33.6V72.79a2.8,2.8,0,0,1-2.81,2.8H60.39a2.81,2.81,0,0,0-2.8,2.8V93H51.86a2.8,2.8,0,0,0-2.8,2.8v36.4a11.21,11.21,0,0,0,11.19,11.2h0a11.21,11.21,0,0,0,11.2-11.2V95.75a2.81,2.81,0,0,0-2.8-2.8H63.19V81.19h60a8.41,8.41,0,0,0,8.41-8.4V33.6A8.41,8.41,0,0,0,123.18,25.2ZM28.48,6.77A1.17,1.17,0,0,1,29.65,5.6H91.79A1.17,1.17,0,0,1,93,6.77V14c0,1.49-2,2.8-4.21,2.8H82.39a2.8,2.8,0,0,0-2.8,2.8v9.8c0,1.49-2,2.8-4.21,2.8s-4.21-1.31-4.21-2.8V19.6a2.8,2.8,0,0,0-2.8-2.8H52.43a2.8,2.8,0,0,0-2.8,2.8v3.08c0,1.49-2,2.8-4.21,2.8s-4.21-1.31-4.21-2.8V19.6a2.8,2.8,0,0,0-2.8-2.8H32.69c-2.25,0-4.21-1.31-4.21-2.8ZM114.93,36.4a14,14,0,0,1-14,14H14a8.42,8.42,0,0,1-7.42-4.46H28.06a2.8,2.8,0,1,0,0-5.59H5.6V14A8.41,8.41,0,0,1,14,5.6h9a6.45,6.45,0,0,0-.1,1.17V14c0,4.63,4.4,8.4,9.81,8.4h2.92v.28c0,4.63,4.4,8.4,9.81,8.4s9.81-3.77,9.81-8.4V22.4H65.57v7c0,4.63,4.4,8.4,9.81,8.4s9.81-3.77,9.81-8.4v-7h3.56c5.41,0,9.81-3.77,9.81-8.4V6.77a6.45,6.45,0,0,0-.11-1.17h8.08a8.41,8.41,0,0,1,8.4,8.4ZM65.88,132.15a5.61,5.61,0,0,1-5.6,5.6h0a5.61,5.61,0,0,1-5.6-5.6v-22.4H65.88Zm0-33.6v5.6H54.65v-5.6Z"/></g></g></svg>